<svg width="300" height="40" viewBox="0 0 429 50" fill="none" xmlns="http://www.w3.org/2000/svg">
<path d="M40.7727 17.5909H33.6818C33.4091 16.0758 32.9015 14.7424 32.1591 13.5909C31.4167 12.4394 30.5076 11.4621 29.4318 10.6591C28.3561 9.85606 27.1515 9.25 25.8182 8.84091C24.5 8.43182 23.0985 8.22727 21.6136 8.22727C18.9318 8.22727 16.5303 8.90151 14.4091 10.25C12.303 11.5985 10.6364 13.5758 9.40909 16.1818C8.19697 18.7879 7.59091 21.9697 7.59091 25.7273C7.59091 29.5152 8.19697 32.7121 9.40909 35.3182C10.6364 37.9242 12.3106 39.8939 14.4318 41.2273C16.553 42.5606 18.9394 43.2273 21.5909 43.2273C23.0606 43.2273 24.4545 43.0303 25.7727 42.6364C27.1061 42.2273 28.3106 41.6288 29.3864 40.8409C30.4621 40.053 31.3712 39.0909 32.1136 37.9545C32.8712 36.803 33.3939 35.4848 33.6818 34L40.7727 34.0227C40.3939 36.3106 39.6591 38.4167 38.5682 40.3409C37.4924 42.25 36.1061 43.9015 34.4091 45.2955C32.7273 46.6742 30.803 47.7424 28.6364 48.5C26.4697 49.2576 24.1061 49.6364 21.5455 49.6364C17.5152 49.6364 13.9242 48.6818 10.7727 46.7727C7.62121 44.8485 5.13636 42.0985 3.31818 38.5227C1.51515 34.947 0.613636 30.6818 0.613636 25.7273C0.613636 20.7576 1.52273 16.4924 3.34091 12.9318C5.15909 9.35606 7.64394 6.61363 10.7955 4.70454C13.947 2.7803 17.5303 1.81818 21.5455 1.81818C24.0152 1.81818 26.3182 2.17424 28.4545 2.88636C30.6061 3.58333 32.5379 4.61363 34.25 5.97727C35.9621 7.32576 37.3788 8.97727 38.5 10.9318C39.6212 12.8712 40.3788 15.0909 40.7727 17.5909ZM63.3352 49.7045C60.0625 49.7045 57.2064 48.9545 54.767 47.4545C52.3277 45.9545 50.4337 43.8561 49.0852 41.1591C47.7367 38.4621 47.0625 35.3106 47.0625 31.7045C47.0625 28.0833 47.7367 24.9167 49.0852 22.2045C50.4337 19.4924 52.3277 17.3864 54.767 15.8864C57.2064 14.3864 60.0625 13.6364 63.3352 13.6364C66.608 13.6364 69.464 14.3864 71.9034 15.8864C74.3428 17.3864 76.2367 19.4924 77.5852 22.2045C78.9337 24.9167 79.608 28.0833 79.608 31.7045C79.608 35.3106 78.9337 38.4621 77.5852 41.1591C76.2367 43.8561 74.3428 45.9545 71.9034 47.4545C69.464 48.9545 66.608 49.7045 63.3352 49.7045ZM63.358 44C65.4792 44 67.2367 43.4394 68.6307 42.3182C70.0246 41.197 71.0549 39.7045 71.7216 37.8409C72.4034 35.9773 72.7443 33.9242 72.7443 31.6818C72.7443 29.4545 72.4034 27.4091 71.7216 25.5455C71.0549 23.6667 70.0246 22.1591 68.6307 21.0227C67.2367 19.8864 65.4792 19.3182 63.358 19.3182C61.2216 19.3182 59.4489 19.8864 58.0398 21.0227C56.6458 22.1591 55.608 23.6667 54.9261 25.5455C54.2595 27.4091 53.9261 29.4545 53.9261 31.6818C53.9261 33.9242 54.2595 35.9773 54.9261 37.8409C55.608 39.7045 56.6458 41.197 58.0398 42.3182C59.4489 43.4394 61.2216 44 63.358 44ZM97.3523 49.7727C95.1402 49.7727 93.1402 49.3636 91.3523 48.5455C89.5644 47.7121 88.1477 46.5076 87.1023 44.9318C86.072 43.3561 85.5568 41.4242 85.5568 39.1364C85.5568 37.1667 85.9356 35.5455 86.6932 34.2727C87.4508 33 88.4735 31.9924 89.7614 31.25C91.0492 30.5076 92.4886 29.947 94.0795 29.5682C95.6705 29.1894 97.2917 28.9015 98.9432 28.7045C101.034 28.4621 102.731 28.2652 104.034 28.1136C105.337 27.947 106.284 27.6818 106.875 27.3182C107.466 26.9545 107.761 26.3636 107.761 25.5455V25.3864C107.761 23.4015 107.201 21.8636 106.08 20.7727C104.973 19.6818 103.322 19.1364 101.125 19.1364C98.8371 19.1364 97.0341 19.6439 95.7159 20.6591C94.4129 21.6591 93.5114 22.7727 93.0114 24L86.625 22.5455C87.3826 20.4242 88.4886 18.7121 89.9432 17.4091C91.4129 16.0909 93.1023 15.1364 95.0114 14.5455C96.9205 13.9394 98.928 13.6364 101.034 13.6364C102.428 13.6364 103.905 13.803 105.466 14.1364C107.042 14.4545 108.511 15.0455 109.875 15.9091C111.254 16.7727 112.383 18.0076 113.261 19.6136C114.14 21.2045 114.58 23.2727 114.58 25.8182V49H107.943V44.2273H107.67C107.231 45.1061 106.572 45.9697 105.693 46.8182C104.814 47.6667 103.686 48.3712 102.307 48.9318C100.928 49.4924 99.2765 49.7727 97.3523 49.7727ZM98.8295 44.3182C100.708 44.3182 102.314 43.947 103.648 43.2045C104.996 42.4621 106.019 41.4924 106.716 40.2955C107.428 39.0833 107.784 37.7879 107.784 36.4091V31.9091C107.542 32.1515 107.072 32.3788 106.375 32.5909C105.693 32.7879 104.913 32.9621 104.034 33.1136C103.155 33.25 102.299 33.3788 101.466 33.5C100.633 33.6061 99.9356 33.697 99.375 33.7727C98.0568 33.9394 96.8523 34.2197 95.7614 34.6136C94.6856 35.0076 93.822 35.5758 93.1705 36.3182C92.5341 37.0455 92.2159 38.0152 92.2159 39.2273C92.2159 40.9091 92.8371 42.1818 94.0795 43.0455C95.322 43.8939 96.9053 44.3182 98.8295 44.3182ZM138.335 49.7045C134.956 49.7045 132.047 48.9394 129.608 47.4091C127.184 45.8636 125.32 43.7348 124.017 41.0227C122.714 38.3106 122.062 35.2045 122.062 31.7045C122.062 28.1591 122.729 25.0303 124.062 22.3182C125.396 19.5909 127.275 17.4621 129.699 15.9318C132.123 14.4015 134.979 13.6364 138.267 13.6364C140.919 13.6364 143.282 14.1288 145.358 15.1136C147.434 16.0833 149.108 17.447 150.381 19.2045C151.669 20.9621 152.434 23.0152 152.676 25.3636H146.062C145.699 23.7273 144.866 22.3182 143.562 21.1364C142.275 19.9545 140.547 19.3636 138.381 19.3636C136.487 19.3636 134.828 19.8636 133.403 20.8636C131.994 21.8485 130.896 23.2576 130.108 25.0909C129.32 26.9091 128.926 29.0606 128.926 31.5455C128.926 34.0909 129.313 36.2879 130.085 38.1364C130.858 39.9848 131.949 41.4167 133.358 42.4318C134.782 43.447 136.456 43.9545 138.381 43.9545C139.669 43.9545 140.835 43.7197 141.881 43.25C142.941 42.7652 143.828 42.0758 144.54 41.1818C145.267 40.2879 145.775 39.2121 146.062 37.9545H152.676C152.434 40.2121 151.699 42.2273 150.472 44C149.244 45.7727 147.6 47.1667 145.54 48.1818C143.494 49.197 141.093 49.7045 138.335 49.7045ZM166.739 28.2727V49H159.943V2.45454H166.648V19.7727H167.08C167.898 17.8939 169.148 16.4015 170.83 15.2955C172.511 14.1894 174.708 13.6364 177.42 13.6364C179.814 13.6364 181.905 14.1288 183.693 15.1136C185.496 16.0985 186.89 17.5682 187.875 19.5227C188.875 21.4621 189.375 23.8864 189.375 26.7955V49H182.58V27.6136C182.58 25.053 181.92 23.0682 180.602 21.6591C179.284 20.2348 177.451 19.5227 175.102 19.5227C173.496 19.5227 172.057 19.8636 170.784 20.5455C169.527 21.2273 168.534 22.2273 167.807 23.5455C167.095 24.8485 166.739 26.4242 166.739 28.2727ZM224.375 14.6818C224.133 12.5303 223.133 10.8636 221.375 9.68182C219.617 8.48485 217.405 7.88636 214.739 7.88636C212.83 7.88636 211.178 8.18939 209.784 8.79545C208.39 9.38636 207.307 10.2045 206.534 11.25C205.777 12.2803 205.398 13.4545 205.398 14.7727C205.398 15.8788 205.655 16.8333 206.17 17.6364C206.701 18.4394 207.39 19.1136 208.239 19.6591C209.102 20.1894 210.027 20.6364 211.011 21C211.996 21.3485 212.943 21.6364 213.852 21.8636L218.398 23.0455C219.883 23.4091 221.405 23.9015 222.966 24.5227C224.527 25.1439 225.973 25.9621 227.307 26.9773C228.64 27.9924 229.716 29.25 230.534 30.75C231.367 32.25 231.784 34.0455 231.784 36.1364C231.784 38.7727 231.102 41.1136 229.739 43.1591C228.39 45.2045 226.428 46.8182 223.852 48C221.292 49.1818 218.193 49.7727 214.557 49.7727C211.072 49.7727 208.057 49.2197 205.511 48.1136C202.966 47.0076 200.973 45.4394 199.534 43.4091C198.095 41.3636 197.299 38.9394 197.148 36.1364H204.193C204.33 37.8182 204.875 39.2197 205.83 40.3409C206.799 41.447 208.034 42.2727 209.534 42.8182C211.049 43.3485 212.708 43.6136 214.511 43.6136C216.496 43.6136 218.261 43.303 219.807 42.6818C221.367 42.0455 222.595 41.1667 223.489 40.0455C224.383 38.9091 224.83 37.5833 224.83 36.0682C224.83 34.6894 224.436 33.5606 223.648 32.6818C222.875 31.803 221.822 31.0758 220.489 30.5C219.17 29.9242 217.678 29.4167 216.011 28.9773L210.511 27.4773C206.784 26.4621 203.83 24.9697 201.648 23C199.481 21.0303 198.398 18.4242 198.398 15.1818C198.398 12.5 199.125 10.1591 200.58 8.15909C202.034 6.15909 204.004 4.60606 206.489 3.5C208.973 2.37879 211.777 1.81818 214.898 1.81818C218.049 1.81818 220.83 2.37121 223.239 3.47727C225.663 4.58333 227.572 6.10606 228.966 8.04545C230.36 9.96969 231.087 12.1818 231.148 14.6818H224.375ZM239.631 49V14.0909H246.426V49H239.631ZM243.062 8.70454C241.881 8.70454 240.866 8.3106 240.017 7.52272C239.184 6.71969 238.767 5.76515 238.767 4.65909C238.767 3.53788 239.184 2.58333 240.017 1.79545C240.866 0.992423 241.881 0.590908 243.062 0.590908C244.244 0.590908 245.252 0.992423 246.085 1.79545C246.934 2.58333 247.358 3.53788 247.358 4.65909C247.358 5.76515 246.934 6.71969 246.085 7.52272C245.252 8.3106 244.244 8.70454 243.062 8.70454ZM271.864 14.0909V19.5455H252.795V14.0909H271.864ZM257.909 5.72727H264.705V38.75C264.705 40.0682 264.902 41.0606 265.295 41.7273C265.689 42.3788 266.197 42.8258 266.818 43.0682C267.455 43.2955 268.144 43.4091 268.886 43.4091C269.432 43.4091 269.909 43.3712 270.318 43.2955C270.727 43.2197 271.045 43.1591 271.273 43.1136L272.5 48.7273C272.106 48.8788 271.545 49.0303 270.818 49.1818C270.091 49.3485 269.182 49.4394 268.091 49.4545C266.303 49.4848 264.636 49.1667 263.091 48.5C261.545 47.8333 260.295 46.803 259.341 45.4091C258.386 44.0152 257.909 42.2652 257.909 40.1591V5.72727ZM294.051 49.7045C290.612 49.7045 287.65 48.9697 285.165 47.5C282.695 46.0152 280.786 43.9318 279.438 41.25C278.104 38.553 277.438 35.3939 277.438 31.7727C277.438 28.197 278.104 25.0455 279.438 22.3182C280.786 19.5909 282.665 17.4621 285.074 15.9318C287.498 14.4015 290.331 13.6364 293.574 13.6364C295.544 13.6364 297.453 13.9621 299.301 14.6136C301.15 15.2652 302.809 16.2879 304.278 17.6818C305.748 19.0758 306.907 20.8864 307.756 23.1136C308.604 25.3258 309.028 28.0152 309.028 31.1818V33.5909H281.278V28.5H302.369C302.369 26.7121 302.006 25.1288 301.278 23.75C300.551 22.3561 299.528 21.2576 298.21 20.4545C296.907 19.6515 295.377 19.25 293.619 19.25C291.71 19.25 290.044 19.7197 288.619 20.6591C287.21 21.5833 286.119 22.7955 285.347 24.2955C284.589 25.7803 284.21 27.3939 284.21 29.1364V33.1136C284.21 35.447 284.619 37.4318 285.438 39.0682C286.271 40.7045 287.43 41.9545 288.915 42.8182C290.4 43.6667 292.134 44.0909 294.119 44.0909C295.407 44.0909 296.581 43.9091 297.642 43.5455C298.703 43.1667 299.619 42.6061 300.392 41.8636C301.165 41.1212 301.756 40.2045 302.165 39.1136L308.597 40.2727C308.081 42.1667 307.157 43.8258 305.824 45.25C304.506 46.6591 302.847 47.7576 300.847 48.5455C298.862 49.3182 296.597 49.7045 294.051 49.7045ZM334.051 49V2.45454H350.642C354.263 2.45454 357.263 3.11363 359.642 4.43182C362.021 5.75 363.801 7.55303 364.983 9.84091C366.165 12.1136 366.756 14.6742 366.756 17.5227C366.756 20.3864 366.157 22.9621 364.96 25.25C363.778 27.5227 361.991 29.3258 359.597 30.6591C357.218 31.9773 354.225 32.6364 350.619 32.6364H339.21V26.6818H349.983C352.271 26.6818 354.127 26.2879 355.551 25.5C356.975 24.697 358.021 23.6061 358.688 22.2273C359.354 20.8485 359.688 19.2803 359.688 17.5227C359.688 15.7652 359.354 14.2045 358.688 12.8409C358.021 11.4773 356.968 10.4091 355.528 9.63636C354.104 8.86364 352.225 8.47727 349.892 8.47727H341.074V49H334.051ZM374.443 49V14.0909H381.011V19.6364H381.375C382.011 17.7576 383.133 16.2803 384.739 15.2045C386.36 14.1136 388.193 13.5682 390.239 13.5682C390.663 13.5682 391.163 13.5833 391.739 13.6136C392.33 13.6439 392.792 13.6818 393.125 13.7273V20.2273C392.852 20.1515 392.367 20.0682 391.67 19.9773C390.973 19.8712 390.277 19.8182 389.58 19.8182C387.973 19.8182 386.542 20.1591 385.284 20.8409C384.042 21.5076 383.057 22.4394 382.33 23.6364C381.602 24.8182 381.239 26.1667 381.239 27.6818V49H374.443ZM412.46 49.7045C409.188 49.7045 406.331 48.9545 403.892 47.4545C401.453 45.9545 399.559 43.8561 398.21 41.1591C396.862 38.4621 396.188 35.3106 396.188 31.7045C396.188 28.0833 396.862 24.9167 398.21 22.2045C399.559 19.4924 401.453 17.3864 403.892 15.8864C406.331 14.3864 409.188 13.6364 412.46 13.6364C415.733 13.6364 418.589 14.3864 421.028 15.8864C423.468 17.3864 425.362 19.4924 426.71 22.2045C428.059 24.9167 428.733 28.0833 428.733 31.7045C428.733 35.3106 428.059 38.4621 426.71 41.1591C425.362 43.8561 423.468 45.9545 421.028 47.4545C418.589 48.9545 415.733 49.7045 412.46 49.7045ZM412.483 44C414.604 44 416.362 43.4394 417.756 42.3182C419.15 41.197 420.18 39.7045 420.847 37.8409C421.528 35.9773 421.869 33.9242 421.869 31.6818C421.869 29.4545 421.528 27.4091 420.847 25.5455C420.18 23.6667 419.15 22.1591 417.756 21.0227C416.362 19.8864 414.604 19.3182 412.483 19.3182C410.347 19.3182 408.574 19.8864 407.165 21.0227C405.771 22.1591 404.733 23.6667 404.051 25.5455C403.384 27.4091 403.051 29.4545 403.051 31.6818C403.051 33.9242 403.384 35.9773 404.051 37.8409C404.733 39.7045 405.771 41.197 407.165 42.3182C408.574 43.4394 410.347 44 412.483 44Z" fill="url(#paint0_linear_1148_2)"/>
<defs>
<linearGradient id="paint0_linear_1148_2" x1="-3" y1="25.5" x2="432" y2="25.5" gradientUnits="userSpaceOnUse">
<stop offset="0.12373" stop-color="white"/>
<stop offset="0.439837" stop-color="#C5CAFB"/>
<stop offset="0.657759" stop-color="#D7DAFC"/>
<stop offset="0.703637" stop-color="#021AEC"/>
<stop offset="0.847006" stop-color="#0215C1"/>
<stop offset="1" stop-color="#010F86"/>
</linearGradient>
</defs>
</svg>
