<svg width="200" height="90" viewBox="0 0 410 126" fill="none" xmlns="http://www.w3.org/2000/svg">
<path d="M23.1818 111H8.11364V64.4545H23.6591C28.2197 64.4545 32.1364 65.3864 35.4091 67.25C38.6818 69.0985 41.1894 71.7576 42.9318 75.2273C44.6894 78.6818 45.5682 82.8258 45.5682 87.6591C45.5682 92.5076 44.6818 96.6742 42.9091 100.159C41.1515 103.644 38.6061 106.326 35.2727 108.205C31.9394 110.068 27.9091 111 23.1818 111ZM15.1364 104.864H22.7955C26.3409 104.864 29.2879 104.197 31.6364 102.864C33.9848 101.515 35.7424 99.5682 36.9091 97.0227C38.0758 94.4621 38.6591 91.3409 38.6591 87.6591C38.6591 84.0076 38.0758 80.9091 36.9091 78.3636C35.7576 75.8182 34.0379 73.8864 31.75 72.5682C29.4621 71.25 26.6212 70.5909 23.2273 70.5909H15.1364V104.864ZM68.8011 111.705C65.3617 111.705 62.3996 110.97 59.9148 109.5C57.4451 108.015 55.536 105.932 54.1875 103.25C52.8542 100.553 52.1875 97.3939 52.1875 93.7727C52.1875 90.197 52.8542 87.0455 54.1875 84.3182C55.536 81.5909 57.4148 79.4621 59.8239 77.9318C62.2481 76.4015 65.0814 75.6364 68.3239 75.6364C70.2936 75.6364 72.2027 75.9621 74.0511 76.6136C75.8996 77.2652 77.5587 78.2879 79.0284 79.6818C80.4981 81.0758 81.6572 82.8864 82.5057 85.1136C83.3542 87.3258 83.7784 90.0152 83.7784 93.1818V95.5909H56.0284V90.5H77.1193C77.1193 88.7121 76.7557 87.1288 76.0284 85.75C75.3011 84.3561 74.2784 83.2576 72.9602 82.4545C71.6572 81.6515 70.1269 81.25 68.3693 81.25C66.4602 81.25 64.7936 81.7197 63.3693 82.6591C61.9602 83.5833 60.8693 84.7955 60.0966 86.2955C59.339 87.7803 58.9602 89.3939 58.9602 91.1364V95.1136C58.9602 97.447 59.3693 99.4318 60.1875 101.068C61.0208 102.705 62.1799 103.955 63.6648 104.818C65.1496 105.667 66.8845 106.091 68.8693 106.091C70.1572 106.091 71.3314 105.909 72.392 105.545C73.4527 105.167 74.3693 104.606 75.142 103.864C75.9148 103.121 76.5057 102.205 76.9148 101.114L83.3466 102.273C82.8314 104.167 81.9072 105.826 80.5739 107.25C79.2557 108.659 77.5966 109.758 75.5966 110.545C73.6117 111.318 71.3466 111.705 68.8011 111.705ZM120.182 76.0909L107.523 111H100.25L87.5682 76.0909H94.8636L103.705 102.955H104.068L112.886 76.0909H120.182Z" fill="url(#paint0_linear_1144_18)"/>
<path d="M157.051 111.659C153.93 111.659 151.241 111.091 148.983 109.955C146.741 108.818 145.013 107.273 143.801 105.318C142.589 103.348 141.983 101.121 141.983 98.6364C141.983 96.7424 142.377 95.0606 143.165 93.5909C143.953 92.1061 145.051 90.7348 146.46 89.4773C147.869 88.2197 149.498 86.9545 151.347 85.6818L158.847 80.3864C160.119 79.553 161.112 78.6742 161.824 77.75C162.536 76.8106 162.892 75.6515 162.892 74.2727C162.892 73.1818 162.422 72.1364 161.483 71.1364C160.544 70.1364 159.286 69.6364 157.71 69.6364C156.619 69.6364 155.657 69.9015 154.824 70.4318C154.006 70.9621 153.362 71.6439 152.892 72.4773C152.438 73.2955 152.21 74.1591 152.21 75.0682C152.21 76.1288 152.498 77.197 153.074 78.2727C153.665 79.3485 154.422 80.4621 155.347 81.6136C156.271 82.75 157.241 83.9318 158.256 85.1591L179.869 111H172.188L154.301 89.9773C152.801 88.2045 151.407 86.5379 150.119 84.9773C148.831 83.4015 147.786 81.8106 146.983 80.2045C146.195 78.5833 145.801 76.8333 145.801 74.9545C145.801 72.8182 146.286 70.9242 147.256 69.2727C148.241 67.6061 149.612 66.303 151.369 65.3636C153.127 64.4242 155.188 63.9545 157.551 63.9545C159.945 63.9545 161.998 64.4242 163.71 65.3636C165.438 66.2879 166.763 67.5227 167.688 69.0682C168.627 70.5985 169.097 72.2727 169.097 74.0909C169.097 76.303 168.544 78.2576 167.438 79.9545C166.347 81.6364 164.839 83.1818 162.915 84.5909L153.574 91.4773C151.756 92.8106 150.491 94.1288 149.778 95.4318C149.081 96.7197 148.733 97.7273 148.733 98.4545C148.733 99.7879 149.074 101.023 149.756 102.159C150.453 103.295 151.422 104.205 152.665 104.886C153.922 105.568 155.392 105.909 157.074 105.909C158.801 105.909 160.483 105.538 162.119 104.795C163.771 104.038 165.263 102.955 166.597 101.545C167.945 100.136 169.013 98.447 169.801 96.4773C170.589 94.5076 170.983 92.303 170.983 89.8636H177.119C177.119 92.8636 176.778 95.4015 176.097 97.4773C175.415 99.5379 174.589 101.22 173.619 102.523C172.665 103.811 171.763 104.818 170.915 105.545C170.642 105.788 170.384 106.03 170.142 106.273C169.9 106.515 169.642 106.758 169.369 107C167.794 108.591 165.884 109.765 163.642 110.523C161.415 111.28 159.218 111.659 157.051 111.659ZM217.744 111H202.676V64.4545H218.222C222.782 64.4545 226.699 65.3864 229.972 67.25C233.244 69.0985 235.752 71.7576 237.494 75.2273C239.252 78.6818 240.131 82.8258 240.131 87.6591C240.131 92.5076 239.244 96.6742 237.472 100.159C235.714 103.644 233.169 106.326 229.835 108.205C226.502 110.068 222.472 111 217.744 111ZM209.699 104.864H217.358C220.903 104.864 223.85 104.197 226.199 102.864C228.547 101.515 230.305 99.5682 231.472 97.0227C232.638 94.4621 233.222 91.3409 233.222 87.6591C233.222 84.0076 232.638 80.9091 231.472 78.3636C230.32 75.8182 228.6 73.8864 226.312 72.5682C224.025 71.25 221.184 70.5909 217.79 70.5909H209.699V104.864ZM263.364 111.705C259.924 111.705 256.962 110.97 254.477 109.5C252.008 108.015 250.098 105.932 248.75 103.25C247.417 100.553 246.75 97.3939 246.75 93.7727C246.75 90.197 247.417 87.0455 248.75 84.3182C250.098 81.5909 251.977 79.4621 254.386 77.9318C256.811 76.4015 259.644 75.6364 262.886 75.6364C264.856 75.6364 266.765 75.9621 268.614 76.6136C270.462 77.2652 272.121 78.2879 273.591 79.6818C275.061 81.0758 276.22 82.8864 277.068 85.1136C277.917 87.3258 278.341 90.0152 278.341 93.1818V95.5909H250.591V90.5H271.682C271.682 88.7121 271.318 87.1288 270.591 85.75C269.864 84.3561 268.841 83.2576 267.523 82.4545C266.22 81.6515 264.689 81.25 262.932 81.25C261.023 81.25 259.356 81.7197 257.932 82.6591C256.523 83.5833 255.432 84.7955 254.659 86.2955C253.902 87.7803 253.523 89.3939 253.523 91.1364V95.1136C253.523 97.447 253.932 99.4318 254.75 101.068C255.583 102.705 256.742 103.955 258.227 104.818C259.712 105.667 261.447 106.091 263.432 106.091C264.72 106.091 265.894 105.909 266.955 105.545C268.015 105.167 268.932 104.606 269.705 103.864C270.477 103.121 271.068 102.205 271.477 101.114L277.909 102.273C277.394 104.167 276.47 105.826 275.136 107.25C273.818 108.659 272.159 109.758 270.159 110.545C268.174 111.318 265.909 111.705 263.364 111.705ZM312.04 84.6136L305.881 85.7045C305.623 84.9167 305.214 84.1667 304.653 83.4545C304.108 82.7424 303.366 82.1591 302.426 81.7045C301.487 81.25 300.313 81.0227 298.903 81.0227C296.979 81.0227 295.373 81.4545 294.085 82.3182C292.797 83.1667 292.153 84.2652 292.153 85.6136C292.153 86.7803 292.585 87.7197 293.449 88.4318C294.313 89.1439 295.706 89.7273 297.631 90.1818L303.176 91.4545C306.388 92.197 308.782 93.3409 310.358 94.8864C311.934 96.4318 312.722 98.4394 312.722 100.909C312.722 103 312.116 104.864 310.903 106.5C309.706 108.121 308.032 109.394 305.881 110.318C303.744 111.242 301.267 111.705 298.449 111.705C294.54 111.705 291.35 110.871 288.881 109.205C286.411 107.523 284.896 105.136 284.335 102.045L290.903 101.045C291.313 102.758 292.153 104.053 293.426 104.932C294.699 105.795 296.358 106.227 298.403 106.227C300.631 106.227 302.411 105.765 303.744 104.841C305.078 103.902 305.744 102.758 305.744 101.409C305.744 100.318 305.335 99.4015 304.517 98.6591C303.714 97.9167 302.479 97.3561 300.812 96.9773L294.903 95.6818C291.646 94.9394 289.237 93.7576 287.676 92.1364C286.131 90.5152 285.358 88.4621 285.358 85.9773C285.358 83.9167 285.934 82.1136 287.085 80.5682C288.237 79.0227 289.828 77.8182 291.858 76.9545C293.888 76.0758 296.214 75.6364 298.835 75.6364C302.608 75.6364 305.578 76.4545 307.744 78.0909C309.911 79.7121 311.343 81.8864 312.04 84.6136ZM320.193 111V76.0909H326.989V111H320.193ZM323.625 70.7045C322.443 70.7045 321.428 70.3106 320.58 69.5227C319.746 68.7197 319.33 67.7651 319.33 66.6591C319.33 65.5379 319.746 64.5833 320.58 63.7955C321.428 62.9924 322.443 62.5909 323.625 62.5909C324.807 62.5909 325.814 62.9924 326.648 63.7955C327.496 64.5833 327.92 65.5379 327.92 66.6591C327.92 67.7651 327.496 68.7197 326.648 69.5227C325.814 70.3106 324.807 70.7045 323.625 70.7045ZM350.767 124.818C347.994 124.818 345.608 124.455 343.608 123.727C341.623 123 340.002 122.038 338.744 120.841C337.487 119.644 336.547 118.333 335.926 116.909L341.767 114.5C342.176 115.167 342.722 115.871 343.403 116.614C344.1 117.371 345.04 118.015 346.222 118.545C347.419 119.076 348.956 119.341 350.835 119.341C353.411 119.341 355.54 118.712 357.222 117.455C358.903 116.212 359.744 114.227 359.744 111.5V104.636H359.312C358.903 105.379 358.313 106.205 357.54 107.114C356.782 108.023 355.737 108.811 354.403 109.477C353.07 110.144 351.335 110.477 349.199 110.477C346.441 110.477 343.956 109.833 341.744 108.545C339.547 107.242 337.805 105.326 336.517 102.795C335.244 100.25 334.608 97.1212 334.608 93.4091C334.608 89.697 335.237 86.5152 336.494 83.8636C337.767 81.2121 339.509 79.1818 341.722 77.7727C343.934 76.3485 346.441 75.6364 349.244 75.6364C351.411 75.6364 353.161 76 354.494 76.7273C355.828 77.4394 356.866 78.2727 357.608 79.2273C358.366 80.1818 358.949 81.0227 359.358 81.75H359.858V76.0909H366.517V111.773C366.517 114.773 365.82 117.235 364.426 119.159C363.032 121.083 361.146 122.508 358.767 123.432C356.403 124.356 353.737 124.818 350.767 124.818ZM350.699 104.841C352.653 104.841 354.305 104.386 355.653 103.477C357.017 102.553 358.047 101.235 358.744 99.5227C359.456 97.7955 359.812 95.7273 359.812 93.3182C359.812 90.9697 359.464 88.9015 358.767 87.1136C358.07 85.3258 357.047 83.9318 355.699 82.9318C354.35 81.9167 352.684 81.4091 350.699 81.4091C348.653 81.4091 346.949 81.9394 345.585 83C344.222 84.0455 343.191 85.4697 342.494 87.2727C341.813 89.0758 341.472 91.0909 341.472 93.3182C341.472 95.6061 341.82 97.6136 342.517 99.3409C343.214 101.068 344.244 102.417 345.608 103.386C346.987 104.356 348.684 104.841 350.699 104.841ZM382.426 90.2727V111H375.631V76.0909H382.153V81.7727H382.585C383.388 79.9242 384.646 78.4394 386.358 77.3182C388.085 76.197 390.259 75.6364 392.881 75.6364C395.259 75.6364 397.343 76.1364 399.131 77.1364C400.919 78.1212 402.305 79.5909 403.29 81.5455C404.275 83.5 404.767 85.9167 404.767 88.7955V111H397.972V89.6136C397.972 87.0833 397.313 85.1061 395.994 83.6818C394.676 82.2424 392.866 81.5227 390.562 81.5227C388.987 81.5227 387.585 81.8636 386.358 82.5455C385.146 83.2273 384.184 84.2273 383.472 85.5455C382.775 86.8485 382.426 88.4242 382.426 90.2727Z" fill="url(#paint1_linear_1144_18)"/>
<path d="M5.11364 15.4545H13.6364L28.4545 51.6364H29L43.8182 15.4545H52.3409V62H45.6591V28.3182H45.2273L31.5 61.9318H25.9545L12.2273 28.2955H11.7955V62H5.11364V15.4545ZM72.1648 62.7727C69.9527 62.7727 67.9527 62.3636 66.1648 61.5455C64.3769 60.7121 62.9602 59.5076 61.9148 57.9318C60.8845 56.3561 60.3693 54.4242 60.3693 52.1364C60.3693 50.1667 60.7481 48.5455 61.5057 47.2727C62.2633 46 63.286 44.9924 64.5739 44.25C65.8617 43.5076 67.3011 42.947 68.892 42.5682C70.483 42.1894 72.1042 41.9015 73.7557 41.7045C75.8466 41.4621 77.5436 41.2652 78.8466 41.1136C80.1496 40.947 81.0966 40.6818 81.6875 40.3182C82.2784 39.9545 82.5739 39.3636 82.5739 38.5455V38.3864C82.5739 36.4015 82.0133 34.8636 80.892 33.7727C79.786 32.6818 78.1345 32.1364 75.9375 32.1364C73.6496 32.1364 71.8466 32.6439 70.5284 33.6591C69.2254 34.6591 68.3239 35.7727 67.8239 37L61.4375 35.5455C62.1951 33.4242 63.3011 31.7121 64.7557 30.4091C66.2254 29.0909 67.9148 28.1364 69.8239 27.5455C71.733 26.9394 73.7405 26.6364 75.8466 26.6364C77.2405 26.6364 78.7178 26.803 80.2784 27.1364C81.8542 27.4545 83.3239 28.0455 84.6875 28.9091C86.0663 29.7727 87.1951 31.0076 88.0739 32.6136C88.9527 34.2045 89.392 36.2727 89.392 38.8182V62H82.7557V57.2273H82.483C82.0436 58.1061 81.3845 58.9697 80.5057 59.8182C79.6269 60.6667 78.4981 61.3712 77.1193 61.9318C75.7405 62.4924 74.089 62.7727 72.1648 62.7727ZM73.642 57.3182C75.5208 57.3182 77.1269 56.947 78.4602 56.2045C79.8087 55.4621 80.8314 54.4924 81.5284 53.2955C82.2405 52.0833 82.5966 50.7879 82.5966 49.4091V44.9091C82.3542 45.1515 81.8845 45.3788 81.1875 45.5909C80.5057 45.7879 79.7254 45.9621 78.8466 46.1136C77.9678 46.25 77.1117 46.3788 76.2784 46.5C75.4451 46.6061 74.7481 46.697 74.1875 46.7727C72.8693 46.9394 71.6648 47.2197 70.5739 47.6136C69.4981 48.0076 68.6345 48.5758 67.983 49.3182C67.3466 50.0455 67.0284 51.0152 67.0284 52.2273C67.0284 53.9091 67.6496 55.1818 68.892 56.0455C70.1345 56.8939 71.7178 57.3182 73.642 57.3182ZM114.739 27.0909V32.5455H95.6705V27.0909H114.739ZM100.784 18.7273H107.58V51.75C107.58 53.0682 107.777 54.0606 108.17 54.7273C108.564 55.3788 109.072 55.8258 109.693 56.0682C110.33 56.2955 111.019 56.4091 111.761 56.4091C112.307 56.4091 112.784 56.3712 113.193 56.2955C113.602 56.2197 113.92 56.1591 114.148 56.1136L115.375 61.7273C114.981 61.8788 114.42 62.0303 113.693 62.1818C112.966 62.3485 112.057 62.4394 110.966 62.4545C109.178 62.4848 107.511 62.1667 105.966 61.5C104.42 60.8333 103.17 59.803 102.216 58.4091C101.261 57.0152 100.784 55.2652 100.784 53.1591V18.7273ZM138.551 27.0909V32.5455H119.483V27.0909H138.551ZM124.597 18.7273H131.392V51.75C131.392 53.0682 131.589 54.0606 131.983 54.7273C132.377 55.3788 132.884 55.8258 133.506 56.0682C134.142 56.2955 134.831 56.4091 135.574 56.4091C136.119 56.4091 136.597 56.3712 137.006 56.2955C137.415 56.2197 137.733 56.1591 137.96 56.1136L139.188 61.7273C138.794 61.8788 138.233 62.0303 137.506 62.1818C136.778 62.3485 135.869 62.4394 134.778 62.4545C132.991 62.4848 131.324 62.1667 129.778 61.5C128.233 60.8333 126.983 59.803 126.028 58.4091C125.074 57.0152 124.597 55.2652 124.597 53.1591V18.7273ZM153.614 41.2727V62H146.818V15.4545H153.523V32.7727H153.955C154.773 30.8939 156.023 29.4015 157.705 28.2955C159.386 27.1894 161.583 26.6364 164.295 26.6364C166.689 26.6364 168.78 27.1288 170.568 28.1136C172.371 29.0985 173.765 30.5682 174.75 32.5227C175.75 34.4621 176.25 36.8864 176.25 39.7955V62H169.455V40.6136C169.455 38.053 168.795 36.0682 167.477 34.6591C166.159 33.2348 164.326 32.5227 161.977 32.5227C160.371 32.5227 158.932 32.8636 157.659 33.5455C156.402 34.2273 155.409 35.2273 154.682 36.5455C153.97 37.8485 153.614 39.4242 153.614 41.2727ZM200.364 62.7045C196.924 62.7045 193.962 61.9697 191.477 60.5C189.008 59.0152 187.098 56.9318 185.75 54.25C184.417 51.553 183.75 48.3939 183.75 44.7727C183.75 41.197 184.417 38.0455 185.75 35.3182C187.098 32.5909 188.977 30.4621 191.386 28.9318C193.811 27.4015 196.644 26.6364 199.886 26.6364C201.856 26.6364 203.765 26.9621 205.614 27.6136C207.462 28.2652 209.121 29.2879 210.591 30.6818C212.061 32.0758 213.22 33.8864 214.068 36.1136C214.917 38.3258 215.341 41.0152 215.341 44.1818V46.5909H187.591V41.5H208.682C208.682 39.7121 208.318 38.1288 207.591 36.75C206.864 35.3561 205.841 34.2576 204.523 33.4545C203.22 32.6515 201.689 32.25 199.932 32.25C198.023 32.25 196.356 32.7197 194.932 33.6591C193.523 34.5833 192.432 35.7955 191.659 37.2955C190.902 38.7803 190.523 40.3939 190.523 42.1364V46.1136C190.523 48.447 190.932 50.4318 191.75 52.0682C192.583 53.7045 193.742 54.9545 195.227 55.8182C196.712 56.6667 198.447 57.0909 200.432 57.0909C201.72 57.0909 202.894 56.9091 203.955 56.5455C205.015 56.1667 205.932 55.6061 206.705 54.8636C207.477 54.1212 208.068 53.2045 208.477 52.1136L214.909 53.2727C214.394 55.1667 213.47 56.8258 212.136 58.25C210.818 59.6591 209.159 60.7576 207.159 61.5455C205.174 62.3182 202.909 62.7045 200.364 62.7045ZM230.386 62L220.114 27.0909H227.136L233.977 52.7273H234.318L241.182 27.0909H248.205L255.023 52.6136H255.364L262.159 27.0909H269.182L258.932 62H252L244.909 36.7955H244.386L237.295 62H230.386Z" fill="url(#paint2_linear_1144_18)"/>
<defs>
<linearGradient id="paint0_linear_1144_18" x1="3" y1="87.5" x2="410" y2="87.5" gradientUnits="userSpaceOnUse">
<stop offset="0.0166424" stop-color="#FFD700"/>
<stop offset="0.268823" stop-color="#FFD700"/>
<stop offset="0.35551" stop-color="#CBCCD7"/>
<stop offset="0.461898" stop-color="#FDFDFD"/>
<stop offset="0.60769" stop-color="#0D0C25"/>
<stop offset="0.985961" stop-color="#02031A"/>
</linearGradient>
<linearGradient id="paint1_linear_1144_18" x1="3" y1="87.5" x2="410" y2="87.5" gradientUnits="userSpaceOnUse">
<stop stop-color="#FDFDFD"/>
<stop offset="0.247031" stop-color="#CBCCD7"/>
<stop offset="0.48373" stop-color="#8E8E9E"/>
<stop offset="0.57873" stop-color="#0D0C25"/>
<stop offset="0.57883" stop-color="#0D0C25"/>
<stop offset="0.84873" stop-color="#FF0000"/>
<stop offset="1" stop-color="#FF0000"/>
</linearGradient>
<linearGradient id="paint2_linear_1144_18" x1="0" y1="38.5" x2="272" y2="38.5" gradientUnits="userSpaceOnUse">
<stop offset="0.0166424" stop-color="#FFD700"/>
<stop offset="0.268823" stop-color="#FFD700"/>
<stop offset="0.35551" stop-color="#CBCCD7"/>
<stop offset="0.461898" stop-color="#FDFDFD"/>
<stop offset="0.60769" stop-color="#0D0C25"/>
<stop offset="0.985961" stop-color="#02031A"/>
</linearGradient>
</defs>
</svg>
