<svg width="321" height="63" viewBox="0 0 621 63" fill="none" xmlns="http://www.w3.org/2000/svg">
<path d="M0.113636 2.45454H8.63636L23.4545 38.6364H24L38.8182 2.45454H47.3409V49H40.6591V15.3182H40.2273L26.5 48.9318H20.9545L7.22727 15.2955H6.79545V49H0.113636V2.45454ZM67.1648 49.7727C64.9527 49.7727 62.9527 49.3636 61.1648 48.5455C59.3769 47.7121 57.9602 46.5076 56.9148 44.9318C55.8845 43.3561 55.3693 41.4242 55.3693 39.1364C55.3693 37.1667 55.7481 35.5455 56.5057 34.2727C57.2633 33 58.286 31.9924 59.5739 31.25C60.8617 30.5076 62.3011 29.947 63.892 29.5682C65.483 29.1894 67.1042 28.9015 68.7557 28.7045C70.8466 28.4621 72.5436 28.2652 73.8466 28.1136C75.1496 27.947 76.0966 27.6818 76.6875 27.3182C77.2784 26.9545 77.5739 26.3636 77.5739 25.5455V25.3864C77.5739 23.4015 77.0133 21.8636 75.892 20.7727C74.786 19.6818 73.1345 19.1364 70.9375 19.1364C68.6496 19.1364 66.8466 19.6439 65.5284 20.6591C64.2254 21.6591 63.3239 22.7727 62.8239 24L56.4375 22.5455C57.1951 20.4242 58.3011 18.7121 59.7557 17.4091C61.2254 16.0909 62.9148 15.1364 64.8239 14.5455C66.733 13.9394 68.7405 13.6364 70.8466 13.6364C72.2405 13.6364 73.7178 13.803 75.2784 14.1364C76.8542 14.4545 78.3239 15.0455 79.6875 15.9091C81.0663 16.7727 82.1951 18.0076 83.0739 19.6136C83.9527 21.2045 84.392 23.2727 84.392 25.8182V49H77.7557V44.2273H77.483C77.0436 45.1061 76.3845 45.9697 75.5057 46.8182C74.6269 47.6667 73.4981 48.3712 72.1193 48.9318C70.7405 49.4924 69.089 49.7727 67.1648 49.7727ZM68.642 44.3182C70.5208 44.3182 72.1269 43.947 73.4602 43.2045C74.8087 42.4621 75.8314 41.4924 76.5284 40.2955C77.2405 39.0833 77.5966 37.7879 77.5966 36.4091V31.9091C77.3542 32.1515 76.8845 32.3788 76.1875 32.5909C75.5057 32.7879 74.7254 32.9621 73.8466 33.1136C72.9678 33.25 72.1117 33.3788 71.2784 33.5C70.4451 33.6061 69.7481 33.697 69.1875 33.7727C67.8693 33.9394 66.6648 34.2197 65.5739 34.6136C64.4981 35.0076 63.6345 35.5758 62.983 36.3182C62.3466 37.0455 62.0284 38.0152 62.0284 39.2273C62.0284 40.9091 62.6496 42.1818 63.892 43.0455C65.1345 43.8939 66.7178 44.3182 68.642 44.3182ZM109.739 14.0909V19.5455H90.6705V14.0909H109.739ZM95.7841 5.72727H102.58V38.75C102.58 40.0682 102.777 41.0606 103.17 41.7273C103.564 42.3788 104.072 42.8258 104.693 43.0682C105.33 43.2955 106.019 43.4091 106.761 43.4091C107.307 43.4091 107.784 43.3712 108.193 43.2955C108.602 43.2197 108.92 43.1591 109.148 43.1136L110.375 48.7273C109.981 48.8788 109.42 49.0303 108.693 49.1818C107.966 49.3485 107.057 49.4394 105.966 49.4545C104.178 49.4848 102.511 49.1667 100.966 48.5C99.4205 47.8333 98.1705 46.803 97.2159 45.4091C96.2614 44.0152 95.7841 42.2652 95.7841 40.1591V5.72727ZM133.551 14.0909V19.5455H114.483V14.0909H133.551ZM119.597 5.72727H126.392V38.75C126.392 40.0682 126.589 41.0606 126.983 41.7273C127.377 42.3788 127.884 42.8258 128.506 43.0682C129.142 43.2955 129.831 43.4091 130.574 43.4091C131.119 43.4091 131.597 43.3712 132.006 43.2955C132.415 43.2197 132.733 43.1591 132.96 43.1136L134.188 48.7273C133.794 48.8788 133.233 49.0303 132.506 49.1818C131.778 49.3485 130.869 49.4394 129.778 49.4545C127.991 49.4848 126.324 49.1667 124.778 48.5C123.233 47.8333 121.983 46.803 121.028 45.4091C120.074 44.0152 119.597 42.2652 119.597 40.1591V5.72727ZM148.614 28.2727V49H141.818V2.45454H148.523V19.7727H148.955C149.773 17.8939 151.023 16.4015 152.705 15.2955C154.386 14.1894 156.583 13.6364 159.295 13.6364C161.689 13.6364 163.78 14.1288 165.568 15.1136C167.371 16.0985 168.765 17.5682 169.75 19.5227C170.75 21.4621 171.25 23.8864 171.25 26.7955V49H164.455V27.6136C164.455 25.053 163.795 23.0682 162.477 21.6591C161.159 20.2348 159.326 19.5227 156.977 19.5227C155.371 19.5227 153.932 19.8636 152.659 20.5455C151.402 21.2273 150.409 22.2273 149.682 23.5455C148.97 24.8485 148.614 26.4242 148.614 28.2727ZM195.364 49.7045C191.924 49.7045 188.962 48.9697 186.477 47.5C184.008 46.0152 182.098 43.9318 180.75 41.25C179.417 38.553 178.75 35.3939 178.75 31.7727C178.75 28.197 179.417 25.0455 180.75 22.3182C182.098 19.5909 183.977 17.4621 186.386 15.9318C188.811 14.4015 191.644 13.6364 194.886 13.6364C196.856 13.6364 198.765 13.9621 200.614 14.6136C202.462 15.2652 204.121 16.2879 205.591 17.6818C207.061 19.0758 208.22 20.8864 209.068 23.1136C209.917 25.3258 210.341 28.0152 210.341 31.1818V33.5909H182.591V28.5H203.682C203.682 26.7121 203.318 25.1288 202.591 23.75C201.864 22.3561 200.841 21.2576 199.523 20.4545C198.22 19.6515 196.689 19.25 194.932 19.25C193.023 19.25 191.356 19.7197 189.932 20.6591C188.523 21.5833 187.432 22.7955 186.659 24.2955C185.902 25.7803 185.523 27.3939 185.523 29.1364V33.1136C185.523 35.447 185.932 37.4318 186.75 39.0682C187.583 40.7045 188.742 41.9545 190.227 42.8182C191.712 43.6667 193.447 44.0909 195.432 44.0909C196.72 44.0909 197.894 43.9091 198.955 43.5455C200.015 43.1667 200.932 42.6061 201.705 41.8636C202.477 41.1212 203.068 40.2045 203.477 39.1136L209.909 40.2727C209.394 42.1667 208.47 43.8258 207.136 45.25C205.818 46.6591 204.159 47.7576 202.159 48.5455C200.174 49.3182 197.909 49.7045 195.364 49.7045ZM225.386 49L215.114 14.0909H222.136L228.977 39.7273H229.318L236.182 14.0909H243.205L250.023 39.6136H250.364L257.159 14.0909H264.182L253.932 49H247L239.909 23.7955H239.386L232.295 49H225.386ZM395.989 49.6591C392.867 49.6591 390.178 49.0909 387.92 47.9545C385.678 46.8182 383.951 45.2727 382.739 43.3182C381.527 41.3485 380.92 39.1212 380.92 36.6364C380.92 34.7424 381.314 33.0606 382.102 31.5909C382.89 30.1061 383.989 28.7348 385.398 27.4773C386.807 26.2197 388.436 24.9545 390.284 23.6818L397.784 18.3864C399.057 17.553 400.049 16.6742 400.761 15.75C401.473 14.8106 401.83 13.6515 401.83 12.2727C401.83 11.1818 401.36 10.1364 400.42 9.13636C399.481 8.13636 398.223 7.63636 396.648 7.63636C395.557 7.63636 394.595 7.90151 393.761 8.43182C392.943 8.96212 392.299 9.64394 391.83 10.4773C391.375 11.2955 391.148 12.1591 391.148 13.0682C391.148 14.1288 391.436 15.197 392.011 16.2727C392.602 17.3485 393.36 18.4621 394.284 19.6136C395.208 20.75 396.178 21.9318 397.193 23.1591L418.807 49H411.125L393.239 27.9773C391.739 26.2045 390.345 24.5379 389.057 22.9773C387.769 21.4015 386.723 19.8106 385.92 18.2045C385.133 16.5833 384.739 14.8333 384.739 12.9545C384.739 10.8182 385.223 8.92424 386.193 7.27272C387.178 5.60606 388.549 4.30303 390.307 3.36364C392.064 2.42424 394.125 1.95454 396.489 1.95454C398.883 1.95454 400.936 2.42424 402.648 3.36364C404.375 4.28788 405.701 5.52273 406.625 7.06818C407.564 8.59848 408.034 10.2727 408.034 12.0909C408.034 14.303 407.481 16.2576 406.375 17.9545C405.284 19.6364 403.777 21.1818 401.852 22.5909L392.511 29.4773C390.693 30.8106 389.428 32.1288 388.716 33.4318C388.019 34.7197 387.67 35.7273 387.67 36.4545C387.67 37.7879 388.011 39.0227 388.693 40.1591C389.39 41.2955 390.36 42.2045 391.602 42.8864C392.86 43.5682 394.33 43.9091 396.011 43.9091C397.739 43.9091 399.42 43.5379 401.057 42.7955C402.708 42.0379 404.201 40.9545 405.534 39.5455C406.883 38.1364 407.951 36.447 408.739 34.4773C409.527 32.5076 409.92 30.303 409.92 27.8636H416.057C416.057 30.8636 415.716 33.4015 415.034 35.4773C414.352 37.5379 413.527 39.2197 412.557 40.5227C411.602 41.8106 410.701 42.8182 409.852 43.5455C409.58 43.7879 409.322 44.0303 409.08 44.2727C408.837 44.5152 408.58 44.7576 408.307 45C406.731 46.5909 404.822 47.7652 402.58 48.5227C400.352 49.2803 398.155 49.6591 395.989 49.6591ZM437.199 49.6818C434.381 49.6818 431.866 48.9621 429.653 47.5227C427.456 46.0682 425.729 44 424.472 41.3182C423.229 38.6212 422.608 35.3864 422.608 31.6136C422.608 27.8409 423.237 24.6136 424.494 21.9318C425.767 19.25 427.509 17.197 429.722 15.7727C431.934 14.3485 434.441 13.6364 437.244 13.6364C439.411 13.6364 441.153 14 442.472 14.7273C443.805 15.4394 444.835 16.2727 445.562 17.2273C446.305 18.1818 446.881 19.0227 447.29 19.75H447.699V2.45454H454.494V49H447.858V43.5682H447.29C446.881 44.3106 446.29 45.1591 445.517 46.1136C444.759 47.0682 443.714 47.9015 442.381 48.6136C441.047 49.3258 439.32 49.6818 437.199 49.6818ZM438.699 43.8864C440.653 43.8864 442.305 43.3712 443.653 42.3409C445.017 41.2955 446.047 39.8485 446.744 38C447.456 36.1515 447.812 34 447.812 31.5455C447.812 29.1212 447.464 27 446.767 25.1818C446.07 23.3636 445.047 21.947 443.699 20.9318C442.35 19.9167 440.684 19.4091 438.699 19.4091C436.653 19.4091 434.949 19.9394 433.585 21C432.222 22.0606 431.191 23.5076 430.494 25.3409C429.813 27.1742 429.472 29.2424 429.472 31.5455C429.472 33.8788 429.82 35.9773 430.517 37.8409C431.214 39.7045 432.244 41.1818 433.608 42.2727C434.987 43.3485 436.684 43.8864 438.699 43.8864ZM479.239 49.7045C475.799 49.7045 472.837 48.9697 470.352 47.5C467.883 46.0152 465.973 43.9318 464.625 41.25C463.292 38.553 462.625 35.3939 462.625 31.7727C462.625 28.197 463.292 25.0455 464.625 22.3182C465.973 19.5909 467.852 17.4621 470.261 15.9318C472.686 14.4015 475.519 13.6364 478.761 13.6364C480.731 13.6364 482.64 13.9621 484.489 14.6136C486.337 15.2652 487.996 16.2879 489.466 17.6818C490.936 19.0758 492.095 20.8864 492.943 23.1136C493.792 25.3258 494.216 28.0152 494.216 31.1818V33.5909H466.466V28.5H487.557C487.557 26.7121 487.193 25.1288 486.466 23.75C485.739 22.3561 484.716 21.2576 483.398 20.4545C482.095 19.6515 480.564 19.25 478.807 19.25C476.898 19.25 475.231 19.7197 473.807 20.6591C472.398 21.5833 471.307 22.7955 470.534 24.2955C469.777 25.7803 469.398 27.3939 469.398 29.1364V33.1136C469.398 35.447 469.807 37.4318 470.625 39.0682C471.458 40.7045 472.617 41.9545 474.102 42.8182C475.587 43.6667 477.322 44.0909 479.307 44.0909C480.595 44.0909 481.769 43.9091 482.83 43.5455C483.89 43.1667 484.807 42.6061 485.58 41.8636C486.352 41.1212 486.943 40.2045 487.352 39.1136L493.784 40.2727C493.269 42.1667 492.345 43.8258 491.011 45.25C489.693 46.6591 488.034 47.7576 486.034 48.5455C484.049 49.3182 481.784 49.7045 479.239 49.7045ZM527.915 22.6136L521.756 23.7045C521.498 22.9167 521.089 22.1667 520.528 21.4545C519.983 20.7424 519.241 20.1591 518.301 19.7045C517.362 19.25 516.188 19.0227 514.778 19.0227C512.854 19.0227 511.248 19.4545 509.96 20.3182C508.672 21.1667 508.028 22.2652 508.028 23.6136C508.028 24.7803 508.46 25.7197 509.324 26.4318C510.188 27.1439 511.581 27.7273 513.506 28.1818L519.051 29.4545C522.263 30.197 524.657 31.3409 526.233 32.8864C527.809 34.4318 528.597 36.4394 528.597 38.9091C528.597 41 527.991 42.8636 526.778 44.5C525.581 46.1212 523.907 47.3939 521.756 48.3182C519.619 49.2424 517.142 49.7045 514.324 49.7045C510.415 49.7045 507.225 48.8712 504.756 47.2045C502.286 45.5227 500.771 43.1364 500.21 40.0455L506.778 39.0455C507.188 40.7576 508.028 42.053 509.301 42.9318C510.574 43.7955 512.233 44.2273 514.278 44.2273C516.506 44.2273 518.286 43.7652 519.619 42.8409C520.953 41.9015 521.619 40.7576 521.619 39.4091C521.619 38.3182 521.21 37.4015 520.392 36.6591C519.589 35.9167 518.354 35.3561 516.688 34.9773L510.778 33.6818C507.521 32.9394 505.112 31.7576 503.551 30.1364C502.006 28.5152 501.233 26.4621 501.233 23.9773C501.233 21.9167 501.809 20.1136 502.96 18.5682C504.112 17.0227 505.703 15.8182 507.733 14.9545C509.763 14.0758 512.089 13.6364 514.71 13.6364C518.483 13.6364 521.453 14.4545 523.619 16.0909C525.786 17.7121 527.218 19.8864 527.915 22.6136ZM536.068 49V14.0909H542.864V49H536.068ZM539.5 8.70454C538.318 8.70454 537.303 8.3106 536.455 7.52272C535.621 6.71969 535.205 5.76515 535.205 4.65909C535.205 3.53788 535.621 2.58333 536.455 1.79545C537.303 0.992423 538.318 0.590908 539.5 0.590908C540.682 0.590908 541.689 0.992423 542.523 1.79545C543.371 2.58333 543.795 3.53788 543.795 4.65909C543.795 5.76515 543.371 6.71969 542.523 7.52272C541.689 8.3106 540.682 8.70454 539.5 8.70454ZM566.642 62.8182C563.869 62.8182 561.483 62.4545 559.483 61.7273C557.498 61 555.877 60.0379 554.619 58.8409C553.362 57.6439 552.422 56.3333 551.801 54.9091L557.642 52.5C558.051 53.1667 558.597 53.8712 559.278 54.6136C559.975 55.3712 560.915 56.0152 562.097 56.5455C563.294 57.0758 564.831 57.3409 566.71 57.3409C569.286 57.3409 571.415 56.7121 573.097 55.4545C574.778 54.2121 575.619 52.2273 575.619 49.5V42.6364H575.188C574.778 43.3788 574.188 44.2045 573.415 45.1136C572.657 46.0227 571.612 46.8106 570.278 47.4773C568.945 48.1439 567.21 48.4773 565.074 48.4773C562.316 48.4773 559.831 47.8333 557.619 46.5455C555.422 45.2424 553.68 43.3258 552.392 40.7955C551.119 38.25 550.483 35.1212 550.483 31.4091C550.483 27.697 551.112 24.5152 552.369 21.8636C553.642 19.2121 555.384 17.1818 557.597 15.7727C559.809 14.3485 562.316 13.6364 565.119 13.6364C567.286 13.6364 569.036 14 570.369 14.7273C571.703 15.4394 572.741 16.2727 573.483 17.2273C574.241 18.1818 574.824 19.0227 575.233 19.75H575.733V14.0909H582.392V49.7727C582.392 52.7727 581.695 55.2348 580.301 57.1591C578.907 59.0833 577.021 60.5076 574.642 61.4318C572.278 62.3561 569.612 62.8182 566.642 62.8182ZM566.574 42.8409C568.528 42.8409 570.18 42.3864 571.528 41.4773C572.892 40.553 573.922 39.2348 574.619 37.5227C575.331 35.7955 575.688 33.7273 575.688 31.3182C575.688 28.9697 575.339 26.9015 574.642 25.1136C573.945 23.3258 572.922 21.9318 571.574 20.9318C570.225 19.9167 568.559 19.4091 566.574 19.4091C564.528 19.4091 562.824 19.9394 561.46 21C560.097 22.0455 559.066 23.4697 558.369 25.2727C557.688 27.0758 557.347 29.0909 557.347 31.3182C557.347 33.6061 557.695 35.6136 558.392 37.3409C559.089 39.0682 560.119 40.4167 561.483 41.3864C562.862 42.3561 564.559 42.8409 566.574 42.8409ZM598.301 28.2727V49H591.506V14.0909H598.028V19.7727H598.46C599.263 17.9242 600.521 16.4394 602.233 15.3182C603.96 14.197 606.134 13.6364 608.756 13.6364C611.134 13.6364 613.218 14.1364 615.006 15.1364C616.794 16.1212 618.18 17.5909 619.165 19.5455C620.15 21.5 620.642 23.9167 620.642 26.7955V49H613.847V27.6136C613.847 25.0833 613.188 23.1061 611.869 21.6818C610.551 20.2424 608.741 19.5227 606.438 19.5227C604.862 19.5227 603.46 19.8636 602.233 20.5455C601.021 21.2273 600.059 22.2273 599.347 23.5455C598.65 24.8485 598.301 26.4242 598.301 28.2727Z" fill="url(#paint0_linear_1143_16)"/>
<path d="M282.636 49.6818C279.818 49.6818 277.303 48.9621 275.091 47.5227C272.894 46.0682 271.167 44 269.909 41.3182C268.667 38.6212 268.045 35.3864 268.045 31.6136C268.045 27.8409 268.674 24.6136 269.932 21.9318C271.205 19.25 272.947 17.197 275.159 15.7727C277.371 14.3485 279.879 13.6364 282.682 13.6364C284.848 13.6364 286.591 14 287.909 14.7273C289.242 15.4394 290.273 16.2727 291 17.2273C291.742 18.1818 292.318 19.0227 292.727 19.75H293.136V2.45454H299.932V49H293.295V43.5682H292.727C292.318 44.3106 291.727 45.1591 290.955 46.1136C290.197 47.0682 289.152 47.9015 287.818 48.6136C286.485 49.3258 284.758 49.6818 282.636 49.6818ZM284.136 43.8864C286.091 43.8864 287.742 43.3712 289.091 42.3409C290.455 41.2955 291.485 39.8485 292.182 38C292.894 36.1515 293.25 34 293.25 31.5455C293.25 29.1212 292.902 27 292.205 25.1818C291.508 23.3636 290.485 21.947 289.136 20.9318C287.788 19.9167 286.121 19.4091 284.136 19.4091C282.091 19.4091 280.386 19.9394 279.023 21C277.659 22.0606 276.629 23.5076 275.932 25.3409C275.25 27.1742 274.909 29.2424 274.909 31.5455C274.909 33.8788 275.258 35.9773 275.955 37.8409C276.652 39.7045 277.682 41.1818 279.045 42.2727C280.424 43.3485 282.121 43.8864 284.136 43.8864ZM324.676 49.7045C321.237 49.7045 318.275 48.9697 315.79 47.5C313.32 46.0152 311.411 43.9318 310.062 41.25C308.729 38.553 308.062 35.3939 308.062 31.7727C308.062 28.197 308.729 25.0455 310.062 22.3182C311.411 19.5909 313.29 17.4621 315.699 15.9318C318.123 14.4015 320.956 13.6364 324.199 13.6364C326.169 13.6364 328.078 13.9621 329.926 14.6136C331.775 15.2652 333.434 16.2879 334.903 17.6818C336.373 19.0758 337.532 20.8864 338.381 23.1136C339.229 25.3258 339.653 28.0152 339.653 31.1818V33.5909H311.903V28.5H332.994C332.994 26.7121 332.631 25.1288 331.903 23.75C331.176 22.3561 330.153 21.2576 328.835 20.4545C327.532 19.6515 326.002 19.25 324.244 19.25C322.335 19.25 320.669 19.7197 319.244 20.6591C317.835 21.5833 316.744 22.7955 315.972 24.2955C315.214 25.7803 314.835 27.3939 314.835 29.1364V33.1136C314.835 35.447 315.244 37.4318 316.062 39.0682C316.896 40.7045 318.055 41.9545 319.54 42.8182C321.025 43.6667 322.759 44.0909 324.744 44.0909C326.032 44.0909 327.206 43.9091 328.267 43.5455C329.328 43.1667 330.244 42.6061 331.017 41.8636C331.79 41.1212 332.381 40.2045 332.79 39.1136L339.222 40.2727C338.706 42.1667 337.782 43.8258 336.449 45.25C335.131 46.6591 333.472 47.7576 331.472 48.5455C329.487 49.3182 327.222 49.7045 324.676 49.7045ZM376.057 14.0909L363.398 49H356.125L343.443 14.0909H350.739L359.58 40.9545H359.943L368.761 14.0909H376.057Z" fill="url(#paint1_linear_1143_16)"/>
<defs>
<linearGradient id="paint0_linear_1143_16" x1="-5" y1="25.5" x2="626" y2="25.5" gradientUnits="userSpaceOnUse">
<stop stop-color="#FDFDFD"/>
<stop offset="0.247031" stop-color="#CBCCD7"/>
<stop offset="0.48373" stop-color="#8E8E9E"/>
<stop offset="0.57873" stop-color="#0D0C25"/>
<stop offset="0.57883" stop-color="#0D0C25"/>
<stop offset="0.84873" stop-color="#FF0000"/>
<stop offset="1" stop-color="#FF0000"/>
</linearGradient>
<linearGradient id="paint1_linear_1143_16" x1="-5" y1="25.5" x2="626" y2="25.5" gradientUnits="userSpaceOnUse">
<stop stop-color="#FDFDFD"/>
<stop offset="0.247031" stop-color="#CBCCD7"/>
<stop offset="0.41738" stop-color="#FFD700"/>
<stop offset="0.587663" stop-color="#FFD700"/>
<stop offset="0.671534" stop-color="#0D0C25"/>
<stop offset="1" stop-color="#02031A"/>
</linearGradient>
</defs>
</svg>
